<?xml version="1.0" standalone="no"?><!DOCTYPE svg PUBLIC "-//W3C//DTD SVG 1.1//EN" "http://www.w3.org/Graphics/SVG/1.1/DTD/svg11.dtd"><svg class="icon" width="16px" height="16.00px" viewBox="0 0 1024 1024" version="1.1" xmlns="http://www.w3.org/2000/svg"><path fill="#00ab94" d="M633.883443 181.316555l0 145.56326 53.893444 0c10.697643 0 20.600177-3.521197 29.770024-10.499122 9.03784-7.011694 13.555737-19.536962 13.555737-37.812187l0-50.636261c0-31.032784-16.479323-46.615691-49.77259-46.615691L633.883443 181.316555zM460.244754 743.233432c-14.486946-14.388708-21.663392-32.394804-21.663392-53.860698 0-20.930705 7.17747-38.541805 21.663392-53.027727 14.353916-14.519692 32.42755-21.696138 53.891398-21.696138 20.268626 0 37.812187 7.176446 52.231595 21.696138 14.421454 14.485923 21.729907 32.097022 21.729907 53.027727 0 21.465894-7.309476 39.47199-21.729907 53.860698-14.419408 14.452153-31.962969 21.727861-52.231595 21.727861C492.673327 764.961292 474.59867 757.685585 460.244754 743.233432M481.90917 90.509387c-8.505721 4.285606-15.948227 9.901511-22.062482 16.912182-6.114255 6.944156-11.031241 14.852266-14.487969 23.623024-3.521197 8.838296-5.183046 18.108426-5.183046 27.776623l0 325.647755c-20.998243 7.408737-40.402175 17.908882-58.278311 31.231305-18.009166 13.421684-33.426297 29.172413-46.25037 47.145763-12.825097 17.97642-22.926152 37.578874-30.16809 58.977229-7.243985 21.564132-10.831696 43.99091-10.831696 67.548442 0 30.568203 5.582135 58.977229 16.879436 85.257779 11.296277 26.248827 26.979468 49.340755 46.981011 69.210291 20.134573 19.804045 43.326784 35.285644 69.442582 46.615691 26.447349 11.164271 54.623062 16.845667 84.527139 16.845667 30.036084 0 58.211796-5.681396 84.393085-16.845667 26.316366-11.329023 49.308009-26.811646 69.111031-46.615691 19.869536-19.869536 35.618219-42.960441 47.115064-69.210291 11.493775-26.281573 17.342993-54.689576 17.342993-85.257779 0-22.992667-3.588735-45.254693-10.565636-66.74924-6.976902-21.398356-16.812921-41.036625-29.704532-59.075467-12.890588-17.97642-28.173666-33.592073-45.917796-47.015803-17.609053-13.3214-36.882002-23.887037-57.747215-31.296797L586.504366 158.822239c0-9.668197-2.192945-18.938328-6.512321-27.776623-4.251837-8.771781-10.034541-16.678868-17.277502-23.623024-7.176446-7.010671-15.549138-12.626575-24.854061-16.912182-9.434883-4.352121-18.87079-6.478552-28.705785-6.478552C499.584738 84.030835 490.414891 86.157265 481.90917 90.509387" /></svg>